<svg width="120" height="120" viewBox="0 0 120 120" fill="none" xmlns="http://www.w3.org/2000/svg">
  <!-- Background Shield -->
  <path d="M60 10L100 30V70C100 85.4 83.4 98.6 60 110C36.6 98.6 20 85.4 20 70V30L60 10Z" fill="#FEF3C7" stroke="#F59E0B" stroke-width="4"/>
  
  <!-- Inner Shield -->
  <path d="M60 25L90 40V70C90 80 78 90 60 98C42 90 30 80 30 70V40L60 25Z" fill="#FDE68A" stroke="#F59E0B" stroke-width="2"/>
  
  <!-- Star -->
  <path d="M60 40L67 54H82L70 63L74 78L60 70L46 78L50 63L38 54H53L60 40Z" fill="#FFFFFF" stroke="#F59E0B" stroke-width="2"/>
  
  <!-- Ribbon Left -->
  <path d="M40 100C35 105 30 115 35 120" stroke="#F59E0B" stroke-width="4" stroke-linecap="round"/>
  
  <!-- Ribbon Right -->
  <path d="M80 100C85 105 90 115 85 120" stroke="#F59E0B" stroke-width="4" stroke-linecap="round"/>
  
  <!-- Ribbon Center -->
  <path d="M40 100H80" stroke="#F59E0B" stroke-width="4" stroke-linecap="round"/>
  
  <!-- Sparkles -->
  <circle cx="30" cy="30" r="3" fill="#FFFFFF"/>
  <circle cx="90" cy="30" r="3" fill="#FFFFFF"/>
  <circle cx="30" cy="80" r="3" fill="#FFFFFF"/>
  <circle cx="90" cy="80" r="3" fill="#FFFFFF"/>
  
  <!-- Shine Effect -->
  <path d="M45 40L50 35M75 40L70 35M45 70L50 75M75 70L70 75" stroke="#FFFFFF" stroke-width="2" stroke-linecap="round"/>
</svg>