<svg width="48" height="48" viewBox="0 0 48 48" fill="none" xmlns="http://www.w3.org/2000/svg">
  <rect x="10" y="10" width="4" height="4" rx="1" fill="#F472B6" transform="rotate(15 10 10)" />
  <rect x="20" y="5" width="3" height="3" rx="0.5" fill="#60A5FA" transform="rotate(-10 20 5)" />
  <rect x="30" y="8" width="5" height="5" rx="1" fill="#34D399" transform="rotate(45 30 8)" />
  <rect x="8" y="20" width="4" height="4" rx="1" fill="#FBBF24" transform="rotate(-20 8 20)" />
  <rect x="35" y="20" width="3" height="3" rx="0.5" fill="#A78BFA" transform="rotate(30 35 20)" />
  <rect x="15" y="30" width="5" height="5" rx="1" fill="#F87171" transform="rotate(-45 15 30)" />
  <rect x="30" y="35" width="4" height="4" rx="1" fill="#6EE7B7" transform="rotate(10 30 35)" />
  <rect x="20" y="38" width="3" height="3" rx="0.5" fill="#FCD34D" transform="rotate(-15 20 38)" />
</svg>